<?xml version="1.0" encoding="iso-8859-1"?>
<!-- Generator: Adobe Illustrator 19.0.0, SVG Export Plug-In . SVG Version: 6.00 Build 0)  -->
<svg version="1.1" id="Capa_1" xmlns="http://www.w3.org/2000/svg" xmlns:xlink="http://www.w3.org/1999/xlink" x="0px" y="0px"
   viewBox="0 0 512 512" style="enable-background:new 0 0 512 512;" xml:space="preserve">
<path style="fill:#656D78;" d="M240,180v8c0,0,0,8,16,8s16-8,16-8v-8H240z"/>
<g style="opacity:0.2;">
  <path style="fill:#FFFFFF;" d="M248,188v-8h-8v8c0,0,0,8,16,8c1.516,0,2.758-0.133,4-0.258C248.125,194.5,248,188,248,188z"/>
</g>
<g style="opacity:0.2;">
  <path d="M264,188v-8h8v8c0,0,0,8-16,8c-1.516,0-2.758-0.133-4-0.258C263.875,194.5,264,188,264,188z"/>
</g>
<polygon style="fill:#AAB2BD;" points="280,180 232,180 224,164 224,132 288,132 288,164 "/>
<g style="opacity:0.4;">
  <polygon style="fill:#FFFFFF;" points="232,132 224,132 224,164 232,180 240,180 232,164  "/>
</g>
<g style="opacity:0.3;">
  <polygon points="280,132 288,132 288,164 280,180 272,180 280,164  "/>
</g>
<path style="fill:#FFCE54;" d="M320,68c0-35.352-28.656-64-64-64s-64,28.648-64,64c0,23.68,12.891,44.297,32,55.367V132h64v-8.633
  C307.109,112.297,320,91.68,320,68z"/>
<g style="opacity:0.5;">
  <path style="fill:#FFFFFF;" d="M208,68c0-32.633,24.438-59.5,56-63.445C261.375,4.227,258.719,4,256,4c-35.344,0-64,28.648-64,64
    c0,23.68,12.891,44.297,32,55.367C224,123.367,208,108,208,68z"/>
</g>
<g style="opacity:0.2;">
  <path d="M304,68c0-32.633-24.438-59.5-56-63.445C250.625,4.227,253.281,4,256,4c35.344,0,64,28.648,64,64
    c0,23.68-12.891,44.297-32,55.367C288,123.367,304,108,304,68z"/>
</g>
<path style="fill:#5D9CEC;" d="M472.172,508.242h-192v-8c0,0,0-5.359,0-18.641c0-13.359,6.719-18.406,20-23.359
  c6.547-2.484,18.313-6.883,28-11.523l9.359-9.281l22.797,22.805l16-7.922l16,7.922l22.719-22.719l9.125,9.109
  c9.75,4.727,21.438,9.125,28,11.609c13.359,4.953,20,10,20,23.359c0,13.281,0,18.641,0,18.641V508.242z"/>
<g style="opacity:0.3;">
  <path style="fill:#FFFFFF;" d="M296.172,481.602c0-13.359,6.719-18.406,20-23.359c6.547-2.484,18.313-6.883,28-11.523l1.328-1.313
    l-7.969-7.969l-9.359,9.281c-9.688,4.641-21.453,9.039-28,11.523c-13.281,4.953-20,10-20,23.359c0,13.281,0,18.641,0,18.641v8h16
    v-8C296.172,500.242,296.172,494.883,296.172,481.602z"/>
</g>
<g style="opacity:0.2;">
  <path d="M456.328,481.602c0-13.359-6.719-18.406-20-23.359c-6.547-2.484-18.313-6.883-28-11.523L407,445.406l7.969-7.969
    l9.359,9.281c9.688,4.641,21.453,9.039,28,11.523c13.281,4.953,20,10,20,23.359c0,13.281,0,18.641,0,18.641v8h-16v-8
    C456.328,500.242,456.328,494.883,456.328,481.602z"/>
</g>
<g>
  <polygon style="fill:#ED5564;" points="384.5,508.242 368.5,508.242 372.5,464.805 380.5,464.805  "/>
  <rect x="369.1" y="453.93" style="fill:#ED5564;" width="14.25" height="10.875"/>
</g>
<g>
  <polygon style="fill:#E6E9ED;" points="360.5,460.836 336.5,436.836 344.5,428.836 376.625,445.93 376.625,452.836   "/>
  <polygon style="fill:#E6E9ED;" points="392.5,460.836 416.5,436.836 408.5,428.836 376.375,445.93 376.375,452.836   "/>
</g>
<path style="fill:#656D78;" d="M328.25,300.836c0,0,112-40,104.242,64l-16.883-24c-34.883-2.078-73.922,13.516-95.281,23.68
  c-10,4.805-16.078,8.32-16.078,8.32c0-50,32.641-64,32.641-64L328.25,300.836z"/>
<g style="opacity:0.2;">
  <path d="M368.297,293.367c27.313,0.938,56.133,13.203,56.531,60.57l7.664,10.898C437.094,303.172,399.594,292.133,368.297,293.367z
    "/>
</g>
<g style="opacity:0.3;">
  <path style="fill:#FFFFFF;" d="M345.5,310.711l-9.25-9.875c0,0,18.563-6.625,40.047-7.469c-24.656-0.852-48.047,7.469-48.047,7.469
    l8.641,8c0,0-32.641,14-32.641,64c0,0,3.008-1.734,8.18-4.391C314.313,322.094,345.5,310.711,345.5,310.711z"/>
</g>
<path style="fill:#EAC6BB;" d="M432.492,364.836v8.078c0,38-34.641,73.047-56,73.047c-21.281,0-56-35.047-56-73.047v-8.078
  l-0.164-0.32c21.359-10.164,60.398-25.758,95.281-23.68L432.492,364.836z"/>
<g style="opacity:0.2;">
  <path d="M415.609,340.836c-5.203-0.313-10.492-0.125-15.813,0.273l16.695,23.727v8.078c0,33.531-26.969,64.734-47.992,71.609
    c2.797,0.906,5.492,1.438,7.992,1.438c21.359,0,56-35.047,56-73.047v-8.078L415.609,340.836z"/>
</g>
<g style="opacity:0.3;">
  <path style="fill:#FFFFFF;" d="M336.492,372.914v-8.078l-0.164-0.32c18.172-8.648,49.148-21.133,79.469-23.406l-0.188-0.273
    c-34.883-2.078-73.922,13.516-95.281,23.68l0.164,0.32v8.078c0,38,34.719,73.047,56,73.047c2.508,0,5.211-0.531,8.008-1.438
    C363.523,437.648,336.492,406.445,336.492,372.914z"/>
</g>
<path style="fill:#EAC6BB;" d="M191.891,374.234c0,38-34.625,73.047-56,73.047c-21.266,0-56-35.047-56-73.047v-8.078l-0.156-0.078
  l15.922-23.922c0,0,19.516,8,40.234,8c20.813,0,39.766-8,39.766-8l16,24h0.234V374.234z"/>
<g style="opacity:0.2;">
  <path d="M191.656,366.156l-16-24c0,0-5.234,2.188-13.156,4.266l13.156,19.734h0.234v8.078c0,33.539-26.953,64.734-47.984,71.609
    c2.797,0.914,5.484,1.438,7.984,1.438c21.375,0,56-35.047,56-73.047v-8.078H191.656z"/>
</g>
<g style="opacity:0.3;">
  <path style="fill:#FFFFFF;" d="M95.891,374.234v-8.078l-0.156-0.078l13.125-19.703c-7.938-2.063-13.203-4.219-13.203-4.219
    l-15.922,23.922l0.156,0.078v8.078c0,38,34.734,73.047,56,73.047c2.516,0,5.219-0.523,8.016-1.438
    C122.938,438.969,95.891,407.773,95.891,374.234z"/>
</g>
<path style="fill:#965353;" d="M167.148,315.844c0,0,32.398-4.555,24.242,47.766l-16-24c0,0-18.961,8-39.766,8
  c-20.719,0-40.234-8-40.234-8l-15.922,23.922l-0.078,0.078c-8.242-88,96.078-70.484,96.078-70.484
  C159.945,299.453,167.148,315.844,167.148,315.844z"/>
<g style="opacity:0.2;">
  <path d="M167.148,315.844c0,0,19.859-3.844,17.352,37.422l6.891,10.344C199.547,311.289,167.148,315.844,167.148,315.844z"/>
</g>
<g style="opacity:0.2;">
  <path style="fill:#FFFFFF;" d="M159.172,291.766c-28.992-0.781-85.953,5.938-79.781,71.844l0.078-0.078l7.555-11.344
    C88.086,302.008,130.93,292.516,159.172,291.766z"/>
</g>
<path style="fill:#ED5564;" d="M232.156,508.25h-192v-8c0,0,0-5.359,0-18.641c0-13.359,6.719-18.406,20-23.359
  c6.563-2.484,18.328-6.883,28-11.523l9.359-9.281l22.797,22.805l16-7.922l16,7.922l22.719-22.719l9.125,9.109
  c9.766,4.727,21.438,9.125,28,11.609c13.359,4.953,20,10,20,23.359c0,13.281,0,18.641,0,18.641V508.25z"/>
<g style="opacity:0.3;">
  <path style="fill:#FFFFFF;" d="M56.156,481.609c0-13.359,6.719-18.406,20-23.359c6.563-2.484,18.328-6.883,28-11.523l1.328-1.313
    l-7.969-7.969l-9.359,9.281c-9.672,4.641-21.438,9.039-28,11.523c-13.281,4.953-20,10-20,23.359c0,13.281,0,18.641,0,18.641v8h16
    v-8C56.156,500.25,56.156,494.891,56.156,481.609z"/>
</g>
<g style="opacity:0.2;">
  <path d="M216.328,481.609c0-13.359-6.719-18.406-20-23.359c-6.563-2.484-18.328-6.883-28-11.523L167,445.414l7.969-7.969
    l9.359,9.281c9.672,4.641,21.438,9.039,28,11.523c13.281,4.953,20,10,20,23.359c0,13.281,0,18.641,0,18.641v8h-16v-8
    C216.328,500.25,216.328,494.891,216.328,481.609z"/>
</g>
<g>
  <polygon style="fill:#E6E9ED;" points="119.938,460.844 95.938,436.844 103.938,428.844 136.063,445.938 136.063,452.844   "/>
  <polygon style="fill:#E6E9ED;" points="151.938,460.844 175.938,436.844 167.938,428.844 135.813,445.938 135.813,452.844  "/>
</g>
<g style="opacity:0.5;">
  <circle style="fill:#FFFFFF;" cx="236" cy="64" r="12"/>
</g>
<g style="opacity:0.5;">
  <circle style="fill:#FFFFFF;" cx="276" cy="64" r="12"/>
</g>
<g style="opacity:0.5;">
  <polygon style="fill:#FFFFFF;" points="264,124.008 248,124.008 248,108 256,100 264,108  "/>
</g>
<g style="opacity:0.2;">
  <rect x="224" y="124.01" width="64" height="7.992"/>
</g>
<g>
  <path style="fill:#3A3847;" d="M136.242,480c-2.211,0-4.039-1.789-4.039-4s1.75-4,3.953-4h0.086c2.203,0,4,1.789,4,4
    S138.445,480,136.242,480z"/>
  <path style="fill:#3A3847;" d="M136.242,496c-2.211,0-4.039-1.789-4.039-4s1.75-4,3.953-4h0.086c2.203,0,4,1.789,4,4
    S138.445,496,136.242,496z"/>
  <path style="fill:#3A3847;" d="M136,512H40c-2.211,0-4-1.789-4-4v-26.656c0-15.594,8.289-21.742,22.602-27.094
    c4.789-1.789,17.516-6.547,27.672-11.398c2-0.969,4.375-0.117,5.336,1.883c0.953,2,0.109,4.383-1.883,5.336
    c-9.391,4.484-20.664,8.813-28.328,11.68C47.742,466.852,44,471.063,44,481.344V504h92c2.211,0,4,1.789,4,4S138.211,512,136,512z"
    />
  <path style="fill:#3A3847;" d="M232,512h-96c-2.211,0-4-1.789-4-4s1.789-4,4-4h92v-22.656c0-10.281-3.742-14.492-17.398-19.594
    c-7.664-2.867-18.945-7.203-28.344-11.703c-1.992-0.953-2.836-3.344-1.883-5.336c0.953-2.008,3.367-2.836,5.336-1.883
    c9.117,4.367,20.172,8.609,27.688,11.422c14.313,5.352,22.602,11.5,22.602,27.094V508C236,510.211,234.211,512,232,512z"/>
  <path style="fill:#3A3847;" d="M136.242,449.094c-22.602,0-60-35.977-60-76.977c0-2.211,1.789-4,4-4s4,1.789,4,4
    c0,35.57,32.438,68.977,52,68.977s52-33.406,52-68.977c0-2.211,1.789-4,4-4s4,1.789,4,4
    C196.242,413.117,158.844,449.094,136.242,449.094z"/>
  <path style="fill:#3A3847;" d="M80,368c-0.328,0-0.656-0.039-0.977-0.125c-1.648-0.414-2.852-1.813-3.008-3.5
    c-2.133-22.773,2.852-40.969,14.805-54.102c17.625-19.352,46.188-23.414,67.055-23.414c10.891,0,18.414,1.141,18.734,1.188
    c1.773,0.273,3.148,1.695,3.359,3.477c0.219,1.789-0.789,3.492-2.445,4.18c-8.766,3.602-7.977,12.086-6.875,16.469
    c4.078,0.164,12.289,1.477,18.547,8.773c7.609,8.898,9.883,23.586,6.758,43.672c-0.258,1.625-1.484,2.938-3.094,3.289
    c-1.633,0.352-3.273-0.32-4.188-1.688l-14.227-21.336c-6.367,2.305-21.625,7.117-38.203,7.117c-16.633,0-32.234-4.844-38.68-7.141
    l-14.234,21.359C82.578,367.352,81.313,368,80,368z M176,336c1.305,0,2.57,0.641,3.328,1.781l9.867,14.805
    c0.617-11.984-1.445-21.016-6.078-26.438c-4.477-5.219-10.344-6-13.445-6c-0.781,0-1.281,0.055-1.383,0.063
    c-1.773,0.258-3.555-0.773-4.242-2.461c-2.211-5.445-3.727-15.328,1.539-22.688c-2.281-0.117-4.883-0.203-7.711-0.203
    c-19.25,0-45.484,3.609-61.141,20.805c-8.211,9.016-12.609,21-13.141,35.734l9.078-13.617c1.055-1.586,3.078-2.219,4.844-1.484
    c0.188,0.078,19.031,7.703,38.727,7.703c19.68,0,38.023-7.609,38.203-7.688C174.953,336.102,175.477,336,176,336z"/>
  <path style="fill:#3A3847;" d="M192.242,376.117c-2.211,0-4-1.789-4-4V364c0-2.211,1.789-4,4-4s4,1.789,4,4v8.117
    C196.242,374.328,194.453,376.117,192.242,376.117z"/>
  <path style="fill:#3A3847;" d="M80.242,376.117c-2.211,0-4-1.789-4-4V364c0-2.211,1.789-4,4-4s4,1.789,4,4v8.117
    C84.242,374.328,82.453,376.117,80.242,376.117z"/>
  <path style="fill:#3A3847;" d="M120.125,464c-1.039,0-2.063-0.406-2.828-1.172l-24-24c-1.563-1.563-1.563-4.094,0-5.656
    s4.094-1.563,5.656,0l21.969,21.969l13.539-6.727c1.961-0.969,4.375-0.18,5.367,1.805c0.977,1.984,0.172,4.383-1.805,5.367
    l-16.117,8C121.336,463.867,120.727,464,120.125,464z"/>
  <path style="fill:#3A3847;" d="M152.117,464c-0.602,0-1.211-0.133-1.781-0.414l-16.117-8c-1.977-0.984-2.781-3.383-1.805-5.367
    c0.992-1.984,3.375-2.773,5.367-1.805l13.539,6.727l21.969-21.969c1.563-1.563,4.094-1.563,5.656,0s1.563,4.094,0,5.656l-24,24
    C154.18,463.594,153.156,464,152.117,464z"/>
  <path style="fill:#3A3847;" d="M376,512h-96c-2.211,0-4-1.789-4-4v-26.656c0-15.594,8.289-21.742,22.602-27.094
    c8.188-3.063,18.734-7.133,27.672-11.398c2.008-0.969,4.383-0.117,5.336,1.883s0.109,4.383-1.883,5.336
    c-9.219,4.398-19.977,8.555-28.32,11.672c-13.664,5.109-17.406,9.32-17.406,19.602V504h92c2.211,0,4,1.789,4,4S378.211,512,376,512
    z"/>
  <path style="fill:#3A3847;" d="M472,512h-96c-2.211,0-4-1.789-4-4s1.789-4,4-4h92v-22.656c0-10.281-3.742-14.492-17.398-19.594
    c-8.352-3.133-19.117-7.281-28.344-11.703c-1.992-0.953-2.836-3.344-1.883-5.336c0.953-2.008,3.367-2.836,5.336-1.883
    c8.945,4.289,19.5,8.359,27.695,11.43C467.711,459.602,476,465.75,476,481.344V508C476,510.211,474.211,512,472,512z"/>
  <path style="fill:#3A3847;" d="M376.242,449.094c-22.602,0-59.992-35.977-59.992-76.977c0-2.211,1.789-4,4-4s4,1.789,4,4
    c0,35.57,32.438,68.977,51.992,68.977c19.563,0,52.008-33.406,52.008-68.977c0-2.211,1.789-4,4-4s4,1.789,4,4
    C436.25,413.117,398.852,449.094,376.242,449.094z"/>
  <path style="fill:#3A3847;" d="M432.25,376.117c-2.211,0-4-1.789-4-4V364c0-2.211,1.789-4,4-4s4,1.789,4,4v8.117
    C436.25,374.328,434.461,376.117,432.25,376.117z"/>
  <path style="fill:#3A3847;" d="M320.25,376.117c-2.211,0-4-1.789-4-4V364c0-2.211,1.789-4,4-4s4,1.789,4,4v8.117
    C324.25,374.328,322.461,376.117,320.25,376.117z"/>
  <path style="fill:#3A3847;" d="M360.125,464c-1.039,0-2.063-0.406-2.828-1.172l-24-24c-1.563-1.563-1.563-4.094,0-5.656
    s4.094-1.563,5.656,0l21.969,21.969l13.547-6.727c1.992-0.969,4.375-0.18,5.367,1.805c0.977,1.984,0.172,4.383-1.805,5.367
    l-16.125,8C361.336,463.867,360.727,464,360.125,464z"/>
  <path style="fill:#3A3847;" d="M392.125,464c-0.602,0-1.211-0.133-1.781-0.414l-16.125-8c-1.977-0.984-2.781-3.383-1.805-5.367
    c0.992-1.984,3.375-2.773,5.367-1.805l13.547,6.727l21.969-21.969c1.563-1.563,4.094-1.563,5.656,0s1.563,4.094,0,5.656l-24,24
    C394.188,463.594,393.164,464,392.125,464z"/>
  <path style="fill:#3A3847;" d="M304,376c-0.688,0-1.375-0.18-1.992-0.531C300.766,374.75,300,373.43,300,372
    c-0.008-40.266,20.125-58.367,29.898-64.781l-4.617-4.281c-1.023-0.953-1.484-2.367-1.203-3.742
    c0.281-1.367,1.258-2.492,2.578-2.961c0.891-0.32,22.094-7.797,45.813-7.797c21.313,0,37.688,5.992,48.656,17.805
    c11.938,12.867,17.023,32.398,15.117,58.055c-0.125,1.688-1.297,3.109-2.93,3.563c-1.648,0.438-3.359-0.18-4.336-1.563
    L413.234,343.9c-48.945-2.039-106.664,31.234-107.227,31.563C305.391,375.82,304.695,376,304,376z M335.82,301.789l3.531,3.273
    c0.992,0.922,1.453,2.281,1.227,3.617c-0.234,1.336-1.125,2.461-2.367,3c-1.156,0.508-27.328,12.469-29.992,53.453
    c16.883-8.867,64.922-31.727,107.398-29.125c1.219,0.07,2.336,0.695,3.039,1.695l9.953,14.164
    c-0.344-17.5-4.82-30.984-13.352-40.18c-9.391-10.117-23.789-15.25-42.789-15.25C357.703,296.438,343.672,299.617,335.82,301.789z"
    />
  <path style="fill:#3A3847;" d="M376,472c-1.023,0-2.047-0.391-2.828-1.172l-8-8c-1.563-1.563-1.563-4.094,0-5.656
    s4.094-1.563,5.656,0l8,8c1.563,1.563,1.563,4.094,0,5.656C378.047,471.609,377.023,472,376,472z"/>
  <path style="fill:#3A3847;" d="M376,472c-1.023,0-2.047-0.391-2.828-1.172c-1.563-1.563-1.563-4.094,0-5.656l8-8
    c1.563-1.563,4.094-1.563,5.656,0s1.563,4.094,0,5.656l-8,8C378.047,471.609,377.023,472,376,472z"/>
  <path style="fill:#3A3847;" d="M368.008,504c-0.148,0-0.297-0.008-0.453-0.023c-2.195-0.242-3.773-2.219-3.531-4.422l4-36
    c0.242-2.188,2.141-3.773,4.422-3.531c2.195,0.242,3.773,2.219,3.531,4.422l-4,36C371.75,502.484,370.016,504,368.008,504z"/>
  <path style="fill:#3A3847;" d="M383.992,504c-2.008,0-3.742-1.516-3.969-3.555l-4-36c-0.242-2.203,1.336-4.18,3.531-4.422
    c2.25-0.234,4.18,1.344,4.422,3.531l4,36c0.242,2.203-1.336,4.18-3.531,4.422C384.289,503.992,384.141,504,383.992,504z"/>
  <path style="fill:#3A3847;" d="M136,272c-2.211,0-4-1.789-4-4v-24c0-2.211,1.789-4,4-4s4,1.789,4,4v24
    C140,270.211,138.211,272,136,272z"/>
  <path style="fill:#3A3847;" d="M376.25,272c-2.211,0-4-1.789-4-4v-24c0-2.211,1.789-4,4-4s4,1.789,4,4v24
    C380.25,270.211,378.461,272,376.25,272z"/>
  <path style="fill:#3A3847;" d="M376.25,248H136c-2.211,0-4-1.789-4-4s1.789-4,4-4h240.25c2.211,0,4,1.789,4,4
    S378.461,248,376.25,248z"/>
  <path style="fill:#3A3847;" d="M256.125,248c-2.211,0-4-1.789-4-4v-32c0-2.211,1.789-4,4-4s4,1.789,4,4v32
    C260.125,246.211,258.336,248,256.125,248z"/>
  <path style="fill:#3A3847;" d="M288,136h-64c-2.211,0-4-1.789-4-4v-6.375C200.203,113.234,188,91.367,188,68
    c0-37.492,30.508-68,68-68s68,30.508,68,68c0,23.367-12.203,45.234-32,57.625V132C292,134.211,290.211,136,288,136z M228,128h56
    v-4.633c0-1.43,0.758-2.742,1.992-3.461C304.5,109.188,316,89.297,316,68c0-33.086-26.914-60-60-60s-60,26.914-60,60
    c0,21.297,11.5,41.188,30.008,51.906c1.234,0.719,1.992,2.031,1.992,3.461V128z"/>
  <path style="fill:#3A3847;" d="M280,184h-48c-1.516,0-2.898-0.859-3.578-2.211l-8-16C220.148,165.234,220,164.617,220,164v-32
    c0-2.211,1.789-4,4-4h64c2.211,0,4,1.789,4,4v32c0,0.617-0.148,1.234-0.422,1.789l-8,16C282.898,183.141,281.516,184,280,184z
     M234.469,176h43.063L284,163.055V136h-56v27.055L234.469,176z"/>
  <path style="fill:#3A3847;" d="M296,152h-80c-2.211,0-4-1.789-4-4s1.789-4,4-4h80c2.211,0,4,1.789,4,4S298.211,152,296,152z"/>
  <path style="fill:#3A3847;" d="M296,168h-80c-2.211,0-4-1.789-4-4s1.789-4,4-4h80c2.211,0,4,1.789,4,4S298.211,168,296,168z"/>
  <path style="fill:#3A3847;" d="M248,120c-2.211,0-4-1.789-4-4v-8c0-2.211,1.789-4,4-4s4,1.789,4,4v8
    C252,118.211,250.211,120,248,120z"/>
  <path style="fill:#3A3847;" d="M264,120c-2.211,0-4-1.789-4-4v-8c0-2.211,1.789-4,4-4s4,1.789,4,4v8
    C268,118.211,266.211,120,264,120z"/>
  <path style="fill:#3A3847;" d="M248,112c-1.023,0-2.047-0.391-2.828-1.172c-1.563-1.563-1.563-4.094,0-5.656l8-8
    c1.563-1.563,4.094-1.563,5.656,0s1.563,4.094,0,5.656l-8,8C250.047,111.609,249.023,112,248,112z"/>
  <path style="fill:#3A3847;" d="M264,112c-1.023,0-2.047-0.391-2.828-1.172l-8-8c-1.563-1.563-1.563-4.094,0-5.656
    s4.094-1.563,5.656,0l8,8c1.563,1.563,1.563,4.094,0,5.656C266.047,111.609,265.023,112,264,112z"/>
  <path style="fill:#3A3847;" d="M248,96c-2.211,0-4-1.789-4-4V64c0-2.211,1.789-4,4-4s4,1.789,4,4v28C252,94.211,250.211,96,248,96z
    "/>
  <path style="fill:#3A3847;" d="M248,68c-2.211,0-4-1.789-4-4c0-4.414-3.586-8-8-8s-8,3.586-8,8c0,2.211-1.789,4-4,4s-4-1.789-4-4
    c0-8.82,7.18-16,16-16s16,7.18,16,16C252,66.211,250.211,68,248,68z"/>
  <path style="fill:#3A3847;" d="M236,80c-8.82,0-16-7.18-16-16c0-2.211,1.789-4,4-4s4,1.789,4,4c0,4.414,3.586,8,8,8
    c2.211,0,4,1.789,4,4S238.211,80,236,80z"/>
  <path style="fill:#3A3847;" d="M264,96c-2.211,0-4-1.789-4-4V64c0-2.211,1.789-4,4-4s4,1.789,4,4v28C268,94.211,266.211,96,264,96z
    "/>
  <path style="fill:#3A3847;" d="M288,68c-2.211,0-4-1.789-4-4c0-4.414-3.586-8-8-8s-8,3.586-8,8c0,2.211-1.789,4-4,4s-4-1.789-4-4
    c0-8.82,7.18-16,16-16s16,7.18,16,16C292,66.211,290.211,68,288,68z"/>
  <path style="fill:#3A3847;" d="M276,80c-2.211,0-4-1.789-4-4s1.789-4,4-4c4.414,0,8-3.586,8-8c0-2.211,1.789-4,4-4s4,1.789,4,4
    C292,72.82,284.82,80,276,80z"/>
  <path style="fill:#3A3847;" d="M256,200c-19.773,0-20-11.508-20-12c0-2.211,1.789-4,4-4c2.148,0,3.898,1.688,3.992,3.805
    C244.227,189.273,247.016,192,256,192c9.047,0,11.813-2.766,12.008-4.219c0-2.211,1.789-3.891,4-3.891
    c2.203,0,3.992,1.898,3.992,4.109C276,188.492,275.773,200,256,200z"/>
</g>
<g>
</g>
<g>
</g>
<g>
</g>
<g>
</g>
<g>
</g>
<g>
</g>
<g>
</g>
<g>
</g>
<g>
</g>
<g>
</g>
<g>
</g>
<g>
</g>
<g>
</g>
<g>
</g>
<g>
</g>
</svg>