<svg version="1.1" id="レイヤー_1" xmlns="http://www.w3.org/2000/svg" xmlns:xlink="http://www.w3.org/1999/xlink" x="0px"
	 y="0px" viewBox="0 0 1024 1024" style="enable-background:new 0 0 1024 1024;" xml:space="preserve">
<g id="orgtreedx">
<style type="text/css">
	.st0{fill:#58DFFF;}
	.st1{fill:#9E9E9F;}
	.st2{fill:#F6D061;}
	.st3{fill:#EA6000;}
	.st4{fill:#888888;}
	.st5{fill:#BCD3DF;}
</style>
<rect class="st0" width="1024" height="1024"/>
<rect x="110.81" y="86.04" class="st1" width="285.66" height="91.64"/>
<path class="st2" d="M554.04,258.21v530.22c0,16.14,3.28,31.59,9.2,45.61c8.92,21.06,23.73,38.87,42.42,51.49
	c18.63,12.65,41.3,20.03,65.44,20.03h156.44v-48.14H671.1c-9.57,0-18.6-1.95-26.8-5.4c-12.38-5.23-22.91-14.01-30.36-25.02
	c-7.45-11.04-11.76-24.2-11.76-38.56V258.21H554.04z"/>
<path class="st3" d="M886.61,826.37c30.84,0,55.79,25.03,55.79,55.79c0,30.84-24.96,55.79-55.79,55.79
	c-30.8,0-55.79-24.96-55.79-55.79C830.82,851.4,855.81,826.37,886.61,826.37z"/>
<polyline class="st2" points="215.47,306.34 827.53,306.34 827.53,258.21 215.47,258.21 "/>
<path class="st3" d="M886.61,227.97c30.84,0,55.79,25.03,55.79,55.79c0,30.84-24.96,55.79-55.79,55.79
	c-30.8,0-55.79-24.96-55.79-55.79C830.82,252.99,855.81,227.97,886.61,227.97z"/>
<polyline class="st2" points="578.11,607.03 827.53,607.03 827.53,558.9 578.11,558.9 "/>
<path class="st3" d="M886.61,527.17c30.84,0,55.79,25.03,55.79,55.79c0,30.84-24.96,55.79-55.79,55.79
	c-30.8,0-55.79-24.96-55.79-55.79C830.82,552.2,855.81,527.17,886.61,527.17z"/>
<rect x="81.6" y="131.86" class="st4" width="344.09" height="456.49"/>
<g>
	<rect x="122.58" y="174.73" class="st5" width="55.18" height="75.92"/>
	<rect x="226.02" y="174.73" class="st5" width="55.25" height="75.92"/>
	<rect x="329.52" y="174.73" class="st5" width="55.18" height="75.92"/>
</g>
<g>
	<rect x="122.58" y="312.99" class="st5" width="55.18" height="75.92"/>
	<rect x="226.02" y="312.99" class="st5" width="55.25" height="75.92"/>
	<rect x="329.52" y="312.99" class="st5" width="55.18" height="75.92"/>
</g>
<g>
	<rect x="122.58" y="451.25" class="st5" width="55.18" height="75.92"/>
	<rect x="226.02" y="451.25" class="st5" width="55.25" height="75.92"/>
	<rect x="329.52" y="451.25" class="st5" width="55.18" height="75.92"/>
</g>
</g>
</svg>
